<svg width="152" height="150" viewBox="0 0 152 150" fill="none" xmlns="http://www.w3.org/2000/svg">
<path fill-rule="evenodd" clip-rule="evenodd" d="M120.39 135.984C107.833 142.861 92.7295 136.31 78.5736 138.429C64.6186 140.519 51.8005 152.836 38.4604 148.253C24.8701 143.583 18.5029 128.382 12.0136 115.562C5.53975 102.772 -0.760598 89.1586 1.36974 74.9766C3.50907 60.7347 14.8697 50.6285 23.5001 39.0944C33.8859 25.2142 39.6723 3.25156 56.8359 0.848367C74.0499 -1.56188 85.4547 18.2759 99.5391 28.4477C110.974 36.7061 123.037 43.337 131.398 54.6973C141.162 67.9637 153.418 82.3197 151.207 98.6506C148.987 115.038 134.897 128.039 120.39 135.984Z" fill="url(#paint0_linear)" fill-opacity="0.5"/>
<defs>
<linearGradient id="paint0_linear" x1="121.513" y1="139.513" x2="16.7872" y2="34.7873" gradientUnits="userSpaceOnUse">
<stop stop-color="#6D678E"/>
<stop offset="1" stop-color="#F6B5CC"/>
</linearGradient>
</defs>
</svg>
