<svg width="138" height="152" viewBox="0 0 138 152" fill="none" xmlns="http://www.w3.org/2000/svg">
<path fill-rule="evenodd" clip-rule="evenodd" d="M85.1079 151.061C70.7947 150.739 60.9907 137.513 47.6715 132.271C34.5413 127.103 17.2821 131.361 8.02088 120.722C-1.4141 109.883 0.672585 93.5342 1.46279 79.187C2.25112 64.8737 3.60146 49.9342 12.5374 38.7174C21.5111 27.4532 36.4027 24.3813 49.6439 18.7077C65.5784 11.88 81.5709 -4.24703 97.6366 2.25353C113.749 8.77317 113.707 31.6556 120.819 47.5069C126.593 60.3763 133.724 72.1504 135.285 86.1691C137.107 102.54 140.544 121.101 130.463 134.138C120.347 147.22 101.644 151.434 85.1079 151.061Z" fill="url(#paint0_linear)"/>
<defs>
<linearGradient id="paint0_linear" x1="84.3161" y1="154.679" x2="45.9839" y2="11.6211" gradientUnits="userSpaceOnUse">
<stop stop-color="#6D678E"/>
<stop offset="1" stop-color="#F6B5CC"/>
</linearGradient>
</defs>
</svg>
