<svg width="150" height="152" viewBox="0 0 150 152" fill="none" xmlns="http://www.w3.org/2000/svg">
<path fill-rule="evenodd" clip-rule="evenodd" d="M132.568 29.319C140.12 41.4815 134.404 56.92 137.294 70.9389C140.143 84.7589 153.141 96.885 149.294 110.456C145.374 124.281 130.543 131.469 118.097 138.649C105.68 145.812 92.4309 152.846 78.1536 151.494C63.8161 150.136 53.1044 139.344 41.116 131.357C26.6891 121.745 4.44315 117.167 1.10585 100.161C-2.24125 83.104 16.9438 70.6325 26.3309 56.0133C33.9523 44.1442 39.9143 31.7369 50.8008 22.7679C63.514 12.294 77.179 -0.728475 93.6063 0.587664C110.09 1.90832 123.842 15.2675 132.568 29.319Z" fill="url(#paint0_linear)"/>
<defs>
<linearGradient id="paint0_linear" x1="136.03" y1="28.0049" x2="37.1821" y2="138.295" gradientUnits="userSpaceOnUse">
<stop stop-color="#6D678E"/>
<stop offset="1" stop-color="#F6B5CC"/>
</linearGradient>
</defs>
</svg>
