<svg width="141" height="146" viewBox="0 0 141 146" fill="none" xmlns="http://www.w3.org/2000/svg">
<path fill-rule="evenodd" clip-rule="evenodd" d="M84.4943 9.54997C97.1165 16.3066 99.8851 32.535 109.397 43.2308C118.775 53.7747 136.095 57.7769 139.548 71.4531C143.066 85.3859 133.816 99.0266 126.627 111.468C119.455 123.88 111.499 136.596 98.458 142.564C85.3623 148.556 70.6899 144.566 56.3141 143.643C39.014 142.533 17.4595 149.691 6.06595 136.631C-5.36101 123.534 5.01795 103.14 5.8379 85.7863C6.5036 71.6966 5.46319 57.9706 10.4067 44.76C16.1797 29.3327 21.5027 11.2224 36.3873 4.14854C51.3229 -2.94961 69.9118 1.74398 84.4943 9.54997Z" fill="url(#paint0_linear)" fill-opacity="0.5"/>
<defs>
<linearGradient id="paint0_linear" x1="86.8355" y1="6.68099" x2="56.3762" y2="151.619" gradientUnits="userSpaceOnUse">
<stop stop-color="#6D678E"/>
<stop offset="1" stop-color="#F6B5CC"/>
</linearGradient>
</defs>
</svg>
