<svg width="48" height="45" viewBox="0 0 48 45" fill="none" xmlns="http://www.w3.org/2000/svg">
<path fill-rule="evenodd" clip-rule="evenodd" d="M0 43.4998C0 43.1019 0.158035 42.7204 0.43934 42.4391C0.720644 42.1578 1.10218 41.9998 1.5 41.9998H46.5C46.8978 41.9998 47.2794 42.1578 47.5607 42.4391C47.842 42.7204 48 43.1019 48 43.4998C48 43.8976 47.842 44.2791 47.5607 44.5604C47.2794 44.8417 46.8978 44.9998 46.5 44.9998H1.5C1.10218 44.9998 0.720644 44.8417 0.43934 44.5604C0.158035 44.2791 0 43.8976 0 43.4998ZM9.36 0.524756C9.50083 0.360108 9.67566 0.227922 9.87245 0.137292C10.0692 0.046663 10.2833 -0.000258392 10.5 -0.000244137H37.5C37.7167 -0.000258392 37.9308 0.046663 38.1275 0.137292C38.3243 0.227922 38.4992 0.360108 38.64 0.524756L46.917 10.1818C47.6158 10.9973 48 12.0358 48 13.1098V13.4998H45V13.1098C45 12.7522 44.8724 12.4065 44.64 12.1348L36.81 2.99976H11.19L3.36 12.1348C3.12764 12.4065 2.99997 12.7522 3 13.1098V13.4998H0V13.1098C3.77792e-05 12.0358 0.38417 10.9973 1.083 10.1818L9.363 0.521756L9.36 0.524756Z" fill="white"/>
<path d="M7.125 17.6248C9.405 17.6248 11.25 15.7768 11.25 13.4998H14.25C14.25 14.5938 14.6846 15.643 15.4582 16.4166C16.2318 17.1902 17.281 17.6248 18.375 17.6248C19.469 17.6248 20.5182 17.1902 21.2918 16.4166C22.0654 15.643 22.5 14.5938 22.5 13.4998H25.5C25.5 14.5938 25.9346 15.643 26.7082 16.4166C27.4818 17.1902 28.531 17.6248 29.625 17.6248C30.719 17.6248 31.7682 17.1902 32.5418 16.4166C33.3154 15.643 33.75 14.5938 33.75 13.4998H36.75C36.75 14.5938 37.1846 15.643 37.9582 16.4166C38.7318 17.1902 39.781 17.6248 40.875 17.6248C41.969 17.6248 43.0182 17.1902 43.7918 16.4166C44.5654 15.643 45 14.5938 45 13.4998H48C48.0002 14.9847 47.5364 16.4326 46.6735 17.641C45.8105 18.8495 44.5916 19.7581 43.187 20.24C41.7825 20.7218 40.2624 20.7528 38.8394 20.3286C37.4164 19.9043 36.1614 19.0461 35.25 17.8738C34.5844 18.7311 33.7315 19.4247 32.7565 19.9015C31.7815 20.3784 30.7103 20.6257 29.625 20.6248C28.5396 20.626 27.4684 20.3787 26.4934 19.9018C25.5183 19.425 24.6654 18.7312 24 17.8738C23.3346 18.7312 22.4817 19.425 21.5066 19.9018C20.5316 20.3787 19.4604 20.626 18.375 20.6248C17.2896 20.626 16.2184 20.3787 15.2434 19.9018C14.2683 19.425 13.4154 18.7312 12.75 17.8738C11.8386 19.0461 10.5836 19.9043 9.16061 20.3286C7.73758 20.7528 6.21755 20.7218 4.81297 20.24C3.4084 19.7581 2.18947 18.8495 1.32655 17.641C0.463625 16.4326 -0.000163796 14.9847 4.33936e-08 13.4998H3C3 15.7798 4.848 17.6248 7.125 17.6248Z" fill="white"/>
<path d="M14.25 13.4998C14.25 13.8976 14.092 14.2791 13.8107 14.5604C13.5294 14.8417 13.1478 14.9998 12.75 14.9998C12.3522 14.9998 11.9706 14.8417 11.6893 14.5604C11.408 14.2791 11.25 13.8976 11.25 13.4998C11.25 13.1019 11.408 12.7204 11.6893 12.4391C11.9706 12.1578 12.3522 11.9998 12.75 11.9998C13.1478 11.9998 13.5294 12.1578 13.8107 12.4391C14.092 12.7204 14.25 13.1019 14.25 13.4998ZM25.5 13.4998C25.5 13.8976 25.342 14.2791 25.0607 14.5604C24.7794 14.8417 24.3978 14.9998 24 14.9998C23.6022 14.9998 23.2206 14.8417 22.9393 14.5604C22.658 14.2791 22.5 13.8976 22.5 13.4998C22.5 13.1019 22.658 12.7204 22.9393 12.4391C23.2206 12.1578 23.6022 11.9998 24 11.9998C24.3978 11.9998 24.7794 12.1578 25.0607 12.4391C25.342 12.7204 25.5 13.1019 25.5 13.4998ZM36.75 13.4998C36.75 13.8976 36.592 14.2791 36.3107 14.5604C36.0294 14.8417 35.6478 14.9998 35.25 14.9998C34.8522 14.9998 34.4706 14.8417 34.1893 14.5604C33.908 14.2791 33.75 13.8976 33.75 13.4998C33.75 13.1019 33.908 12.7204 34.1893 12.4391C34.4706 12.1578 34.8522 11.9998 35.25 11.9998C35.6478 11.9998 36.0294 12.1578 36.3107 12.4391C36.592 12.7204 36.75 13.1019 36.75 13.4998Z" fill="white"/>
<path fill-rule="evenodd" clip-rule="evenodd" d="M6 20.5378V17.9998H3V19.3108C3.873 19.9318 4.896 20.3608 6 20.5378ZM3 22.7488C3.933 23.1688 4.941 23.4448 6 23.5618V41.9998H3V22.7488ZM42 23.5618C43.0359 23.4487 44.048 23.1755 45 22.7518V41.9998H42V23.5618ZM45 19.3108C44.127 19.9318 43.104 20.3608 42 20.5378V17.9998H45V19.3108ZM9 25.4998C9 25.1019 9.15804 24.7204 9.43934 24.4391C9.72064 24.1578 10.1022 23.9998 10.5 23.9998H22.5C22.8978 23.9998 23.2794 24.1578 23.5607 24.4391C23.842 24.7204 24 25.1019 24 25.4998V41.9998H21V26.9998H12V41.9998H9V25.4998ZM27 25.4998C27 25.1019 27.158 24.7204 27.4393 24.4391C27.7206 24.1578 28.1022 23.9998 28.5 23.9998H37.5C37.8978 23.9998 38.2794 24.1578 38.5607 24.4391C38.842 24.7204 39 25.1019 39 25.4998V37.4998C39 37.8976 38.842 38.2791 38.5607 38.5604C38.2794 38.8417 37.8978 38.9998 37.5 38.9998H28.5C28.1022 38.9998 27.7206 38.8417 27.4393 38.5604C27.158 38.2791 27 37.8976 27 37.4998V25.4998ZM30 26.9998V35.9998H36V26.9998H30Z" fill="white"/>
</svg>
