<svg width="50" height="7" viewBox="0 0 50 7" fill="none" xmlns="http://www.w3.org/2000/svg">
<path d="M3.57143 0L4.37326 2.41844H6.96806L4.86883 3.91312L5.67066 6.33156L3.57143 4.83688L1.4722 6.33156L2.27403 3.91312L0.174798 2.41844H2.76959L3.57143 0Z" fill="white"/>
<path d="M14.2858 0L15.0876 2.41844H17.6824L15.5832 3.91312L16.385 6.33156L14.2858 4.83688L12.1866 6.33156L12.9884 3.91312L10.8892 2.41844H13.4839L14.2858 0Z" fill="white"/>
<path d="M25.0001 0L25.802 2.41844H28.3968L26.2975 3.91312L27.0994 6.33156L25.0001 4.83688L22.9009 6.33156L23.7027 3.91312L21.6035 2.41844H24.1983L25.0001 0Z" fill="white"/>
<path d="M35.7145 0L36.5163 2.41844H39.1111L37.0119 3.91312L37.8137 6.33156L35.7145 4.83688L33.6153 6.33156L34.4171 3.91312L32.3179 2.41844H34.9127L35.7145 0Z" fill="white"/>
<path d="M46.4284 0L47.2302 2.41844H49.825L47.7258 3.91312L48.5276 6.33156L46.4284 4.83688L44.3291 6.33156L45.131 3.91312L43.0317 2.41844H45.6265L46.4284 0Z" fill="white"/>
</svg>
