<svg width="136" height="149" viewBox="0 0 136 149" fill="none" xmlns="http://www.w3.org/2000/svg">
<path fill-rule="evenodd" clip-rule="evenodd" d="M66.4821 3.89547C80.2241 7.91178 86.2711 23.2239 97.7797 31.7347C109.125 40.1247 126.898 40.4792 133.09 53.153C139.398 66.0644 133.151 81.3158 128.675 94.9697C124.209 108.591 119.038 122.672 107.503 131.194C95.9198 139.752 80.7405 138.865 66.4821 140.918C49.3234 143.389 29.7019 154.827 15.8661 144.39C1.98965 133.922 7.95265 111.83 5.186 94.6786C2.93979 80.7533 -0.901299 67.5347 1.21962 53.5897C3.6964 37.305 5.18103 18.4871 18.2926 8.50326C31.4492 -1.51484 50.606 -0.744601 66.4821 3.89547Z" fill="url(#paint0_linear)"/>
<defs>
<linearGradient id="paint0_linear" x1="68.1832" y1="0.606327" x2="68.1832" y2="148.71" gradientUnits="userSpaceOnUse">
<stop stop-color="#6D678E"/>
<stop offset="1" stop-color="#F6B5CC"/>
</linearGradient>
</defs>
</svg>
