<svg width="145" height="149" viewBox="0 0 145 149" fill="none" xmlns="http://www.w3.org/2000/svg">
<path fill-rule="evenodd" clip-rule="evenodd" d="M42.3285 1.22619C56.2375 -2.16656 69.1304 8.0706 83.3526 9.68686C97.3729 11.2802 112.942 2.70076 124.641 10.5805C136.56 18.608 138.776 34.9396 141.726 49.0025C144.669 63.032 147.231 77.812 141.503 90.9595C135.75 104.162 122.161 110.984 110.84 119.891C97.2153 130.61 85.9417 150.327 68.741 148.206C51.4897 146.079 45.6079 123.965 34.6361 110.495C25.7281 99.5582 15.7923 90.0311 10.6566 76.8939C4.6592 61.5525 -3.46401 44.5135 2.89903 29.3114C9.2839 14.0572 26.2593 5.14585 42.3285 1.22619Z" fill="url(#paint0_linear)" fill-opacity="0.5"/>
<defs>
<linearGradient id="paint0_linear" x1="42.1571" y1="-2.47284" x2="116.209" y2="125.789" gradientUnits="userSpaceOnUse">
<stop stop-color="#6D678E"/>
<stop offset="1" stop-color="#F6B5CC"/>
</linearGradient>
</defs>
</svg>
