<svg width="56" height="42" viewBox="0 0 56 42" fill="none" xmlns="http://www.w3.org/2000/svg">
<path d="M34.626 0.000919394C33.516 0.00889267 32.414 0.0627128 31.25 0.373671C29.982 0.716731 28.7788 1.26414 27.688 1.99424C26.156 1.09724 24.672 0.359717 23.25 0.186298C21.484 -0.0309738 19.844 0.0866325 17.938 0.126499C15.678 0.172345 14.204 1.32249 11.812 2.2434C9.422 3.16033 6.344 4.04935 2 4.04935H0V23.235L1.126 23.7952L4.812 25.6031L17.938 40.1782L18 40.24C19.5 41.7191 21.524 42.0859 23.312 41.9842C25.102 41.8845 26.782 41.3623 28.124 40.553C31.078 38.7769 39.124 33.2016 39.124 33.2016L39.312 33.0761L39.438 32.9525C40.39 32.0096 40.868 30.8595 41.188 29.6515L48.874 25.7885L54.624 23.8589L56 23.4204V4.04935H54C50.6381 4.07226 47.3043 3.437 44.188 2.17962C41.796 1.24874 40.344 0.110552 38.06 0.0627125C36.84 0.0387927 35.732 -0.00705388 34.624 0.000919394H34.626ZM34.686 3.98756C35.586 3.97958 36.626 4.02742 37.938 4.04935C38.148 4.05732 40.07 4.87458 42.75 5.91908C45.016 6.80611 48.164 7.59347 52 7.84862V20.556L47.374 22.1148H47.25L47.124 22.1746L41.064 25.2284C40.7423 24.3033 40.2316 23.4549 39.564 22.7367L39.438 22.5493L30.938 12.1482L29.688 10.5894L28.124 11.8353L22.75 16.1966C20.946 17.4425 19.484 17.0837 18 16.384C17.57 16.1807 17.594 16.1189 17.25 15.8857L26.376 8.34694L26.5 8.22336C29.21 5.54434 30.876 4.61745 32.312 4.23672C33.032 4.04138 33.79 3.99553 34.688 3.98756H34.686ZM20.752 4.04935C21.4193 4.02428 22.0875 4.04493 22.752 4.11114C23.276 4.17294 23.87 4.61745 24.378 4.79684C24.174 4.98422 24.026 5.09186 23.814 5.29517L23.69 5.42075L12.752 14.4505L11.064 15.8219L12.564 17.3787C12.564 17.3787 14.01 18.9374 16.252 19.9959C18.494 21.0544 21.956 21.6543 25.064 19.4976L25.19 19.372L29.064 16.1966L36.44 25.2284L36.502 25.3539L36.564 25.4137C37.884 26.7154 37.854 28.7625 36.564 30.0881C36.548 30.102 36.58 30.1339 36.564 30.1479C36.548 30.1578 36.284 30.3133 36.252 30.3372L33.626 26.7851L30.376 29.1532L32.94 32.5777C31.9 33.2794 31.432 33.6461 30.314 34.3857L27.628 30.7718L24.376 33.1398L26.94 36.5644C26.712 36.7039 26.244 37.0168 26.064 37.1265C25.432 37.5072 24.212 37.9358 23.126 37.9976C22.104 38.0534 21.322 37.8182 20.94 37.4992L20.878 37.4374L7.502 22.6749L7.252 22.362L4 20.7434V7.84862C7.82 7.59945 10.992 6.84398 13.25 5.98088C15.922 4.9603 17.83 4.11912 18.062 4.11114L20.75 4.04935H20.752Z" fill="white"/>
</svg>
